HIERARCHY
ROOT Hips
{
	OFFSET 0.00000 0.00000 0.00000
	CHANNELS 6 Xposition Yposition Zposition Zrotation Yrotation Xrotation 
	JOINT LHipJoint
	{
		OFFSET 0 0 0
		CHANNELS 3 Zrotation Yrotation Xrotation
		JOINT LeftHip
		{
			OFFSET 1.52977 -1.71332 0.88991
			CHANNELS 3 Zrotation Yrotation Xrotation
			JOINT LeftKnee
			{
				OFFSET 2.23949 -6.15296 0.00000
				CHANNELS 3 Zrotation Yrotation Xrotation
				JOINT LeftAnkle
				{
					OFFSET 2.68396 -7.37412 0.00000
					CHANNELS 3 Zrotation Yrotation Xrotation
					JOINT LeftToe
					{
						OFFSET 0.20538 -0.56428 2.52710
						CHANNELS 3 Zrotation Yrotation Xrotation
						End Site
						{
							OFFSET 0.00000 -0.00000 1.29919
						}
					}
				}
			}
		}
	}
	JOINT RHipJoint
	{
		OFFSET 0 0 0
		CHANNELS 3 Zrotation Yrotation Xrotation
		JOINT RightHip
		{
			OFFSET -1.45689 -1.71333 0.88991
			CHANNELS 3 Zrotation Yrotation Xrotation
			JOINT RightKnee
			{
				OFFSET -2.36700 -6.50329 0.00000
				CHANNELS 3 Zrotation Yrotation Xrotation
				JOINT RightAnkle
				{
					OFFSET -2.69814 -7.41308 0.00000
					CHANNELS 3 Zrotation Yrotation Xrotation
					JOINT RightToe
					{
						OFFSET -0.18734 -0.51471 2.37479
						CHANNELS 3 Zrotation Yrotation Xrotation
						End Site
						{
							OFFSET -0.00000 -0.00000 1.22113
						}
					}
				}
			}
		}
	}
	JOINT lowerback
	{
		OFFSET 0 0 0
		CHANNELS 3 Zrotation Yrotation Xrotation
		JOINT Chest
		{
			OFFSET 0.04294 2.14638 -0.31163
			CHANNELS 3 Zrotation Yrotation Xrotation
			JOINT Chest2
			{
				OFFSET -0.00400 2.17216 0.01486
				CHANNELS 3 Zrotation Yrotation Xrotation
				JOINT lowerneck
				{
					OFFSET 0 0 0
					CHANNELS 3 Zrotation Yrotation Xrotation
					JOINT Neck
					{
						OFFSET 0.03869 1.76598 0.14916
						CHANNELS 3 Zrotation Yrotation Xrotation
						JOINT Head
						{
							OFFSET -0.00760 1.75513 -0.18948
							CHANNELS 3 Zrotation Yrotation Xrotation
							End Site
							{
								OFFSET -0.00601 1.82444 -0.08310
							}
						}
					}
				}
				JOINT LeftCollar
				{
					OFFSET 0 0 0
					CHANNELS 3 Zrotation Yrotation Xrotation
					JOINT LeftShoulder
					{
						OFFSET 3.73696 0.92058 0.01733
CHANNELS 3 Zrotation Xrotation Yrotation
						JOINT LeftElbow
						{
OFFSET 0 -5.227710 0.000000
CHANNELS 3 Zrotation Xrotation Yrotation
							JOINT LeftWrist
							{
OFFSET 0 -3.452510 0.000000
CHANNELS 3 Zrotation Xrotation Yrotation
								JOINT lhand
								{
									OFFSET 0 0 0
CHANNELS 3 Zrotation Xrotation Yrotation
									JOINT LFingers
									{
OFFSET 0 -0.552120 0.000000
CHANNELS 3 Zrotation Xrotation Yrotation
										End Site
										{
OFFSET 0 -0.445130 0.000000
										}
									}
								}
								JOINT LThumb
								{
OFFSET 0 0.000000 0.000000
CHANNELS 3 Zrotation Xrotation Yrotation
									End Site
									{
OFFSET 0 -0.451930 0.451930
									}
								}
							}
						}
					}
				}
				JOINT RightCollar
				{
					OFFSET 0 0 0
					CHANNELS 3 Zrotation Yrotation Xrotation
					JOINT RightShoulder
					{
						OFFSET -3.63819 0.83094 -0.13694
CHANNELS 3 Zrotation Xrotation Yrotation
						JOINT RightElbow
						{
OFFSET 0 -5.239800 -0.000000
CHANNELS 3 Zrotation Xrotation Yrotation
							JOINT RightWrist
							{
OFFSET 0 -3.480420 -0.000000
CHANNELS 3 Zrotation Xrotation Yrotation
								JOINT rhand
								{
									OFFSET 0 0 0
CHANNELS 3 Zrotation Xrotation Yrotation
									JOINT RFingers
									{
OFFSET 0 -0.618710 0.000000
CHANNELS 3 Zrotation Xrotation Yrotation
										End Site
										{
OFFSET 0 -0.498820 0.000000
										}
									}
								}
								JOINT RThumb
								{
OFFSET 0 0.000000 0.000000
CHANNELS 3 Zrotation Xrotation Yrotation
									End Site
									{
OFFSET 0 -0.506440 0.506440
									}
								}
							}
						}
					}
				}
			}
		}
	}
}
MOTION
Frames: 5
Frame Time: 0.008333333333333333
44.586100 16.140400 -6.395400 -14.872700 -83.399600 12.393600 0.000000 0.000000 0.000000 -18.691200 4.430800 -6.932300 2.100500 9.072400 26.022100 1.192100 -2.035600 -20.066000 0.016500 -0.829300 -2.279300 0.000000 0.000000 0.000000 25.090600 7.020200 -7.838100 -4.142900 -12.348100 36.974800 -2.543000 -1.726600 -30.821800 -0.456500 -4.334100 12.018500 2.129300 -1.017600 -0.872800 0.029900 -1.448900 3.108300 -1.220200 -0.672600 3.635000 1.846300 -0.099300 -13.610900 0.914900 -1.063800 21.767800 -0.139400 -0.352900 9.074100 0.000000 -0.000000 0.000000 1.836300 4.135600 -26.991500 14.512100 -23.462000 3.029000 18.520700 -14.549300 -12.783900 0.000000 0.000000 0.000000 -7.125000 0.000000 0.000000 -7.990400 43.294500 -0.338600 0.000000 -0.000000 0.000000 2.959400 4.273100 19.689500 -14.745400 -23.790300 -3.122500 -18.917300 4.452100 7.612300 0.000000 0.000000 0.000000 7.125000 0.000000 -0.000000 6.767400 37.941700 1.182500
44.581547 16.139770 -6.387671 -14.295234 -83.285551 11.790711 0.000000 0.000000 0.000000 -18.748767 4.473782 -6.889183 2.093841 9.058828 25.979355 1.188447 -2.139475 -20.009419 0.017554 -0.855804 -2.352167 0.000000 0.000000 0.000000 25.028242 6.905861 -7.813092 -4.150545 -12.358060 37.010657 -2.548056 -1.826456 -30.889288 -0.432380 -4.219546 11.695198 2.137911 -0.987961 -0.961525 -0.008129 -1.411024 3.135299 -1.264869 -0.651697 3.713464 1.931827 -0.088116 -13.597573 0.826120 -1.046447 21.771855 -0.181955 -0.347239 9.072066 0.000000 0.000000 0.000000 1.888898 4.130140 -27.013303 14.540378 -23.501991 3.040259 18.497431 -14.590460 -12.734886 0.000000 0.000000 0.000000 -7.125000 0.000000 0.000000 -8.001208 43.241204 -0.349685 0.000000 0.000000 0.000000 2.995180 4.223794 19.708806 -14.752830 -23.800675 -3.125544 -19.016483 4.377172 7.567534 0.000000 0.000000 0.000000 7.125000 0.000000 0.000000 6.677078 37.901493 1.173148
44.577332 16.136162 -6.381287 -13.634843 -83.187022 11.106723 0.000000 0.000000 0.000000 -18.812376 4.529672 -6.885053 2.095308 9.061823 25.988875 1.187255 -2.273949 -19.968598 0.018130 -0.869916 -2.390905 0.000000 0.000000 0.000000 24.958811 6.853514 -7.797939 -4.140720 -12.345360 36.964836 -2.529735 -2.142574 -30.900313 -0.390717 -4.013547 11.114901 2.105667 -0.966782 -1.019633 -0.031523 -1.382699 3.154868 -1.271315 -0.637357 3.767798 1.952150 -0.085767 -13.619945 0.778068 -1.037407 21.798435 -0.200818 -0.345935 9.085053 0.000000 0.000000 0.000000 1.892429 4.127320 -26.988877 14.545447 -23.509004 3.042265 18.452755 -14.658527 -12.525866 0.000000 0.000000 0.000000 -7.125000 0.000000 0.000000 -7.998491 43.019898 -0.393549 0.000000 0.000000 0.000000 2.981366 4.204237 19.814459 -14.920423 -24.035121 -3.193442 -18.670654 4.081510 8.433157 0.000000 0.000000 0.000000 7.125000 0.000000 0.000000 7.094059 38.782368 1.092969
44.574410 16.135277 -6.375497 -13.368989 -83.093567 10.815275 0.000000 0.000000 0.000000 -18.827294 4.582990 -6.872566 2.094494 9.060165 25.983694 1.185777 -2.397688 -19.928796 0.019000 -0.890084 -2.446451 0.000000 0.000000 0.000000 24.930962 6.790442 -7.756889 -4.134726 -12.337542 36.936837 -2.530313 -2.200375 -30.926102 -0.384632 -3.982623 11.027876 2.095854 -0.965303 -1.039051 -0.024743 -1.381277 3.160103 -1.259226 -0.636796 3.784712 1.930370 -0.070991 -13.613749 0.750671 -1.004328 21.798967 -0.202523 -0.335072 9.084035 0.000000 0.000000 0.000000 1.839262 4.137247 -26.885542 14.521486 -23.475280 3.032756 18.349795 -14.718872 -12.262076 0.000000 0.000000 0.000000 -7.125000 0.000000 0.000000 -8.037261 42.735871 -0.452164 0.000000 0.000000 0.000000 2.915198 4.188153 19.943941 -15.031156 -24.189490 -3.238696 -18.454465 3.954103 8.959974 0.000000 0.000000 0.000000 7.125000 0.000000 0.000000 7.359544 39.315242 1.037530
44.572555 16.134800 -6.369590 -13.293497 -83.019988 10.716151 0.000000 0.000000 0.000000 -18.827157 4.632903 -6.850539 2.091445 9.054074 25.964577 1.185225 -2.512014 -19.899343 0.018070 -0.868889 -2.388261 0.000000 0.000000 0.000000 24.911202 6.712994 -7.733930 -4.133650 -12.336095 36.931676 -2.534295 -2.188396 -30.945042 -0.383825 -3.978794 11.016973 2.105414 -0.968730 -1.049491 -0.012665 -1.386709 3.160019 -1.252554 -0.639335 3.790445 1.884398 -0.053599 -13.623421 0.764296 -0.974089 21.835344 -0.186794 -0.323039 9.098847 0.000000 0.000000 0.000000 1.787613 4.161142 -26.807752 14.479856 -23.416579 3.016168 18.234737 -14.835690 -11.875172 0.000000 0.000000 0.000000 -7.125000 0.000000 0.000000 -8.062956 42.323440 -0.536297 0.000000 0.000000 0.000000 2.840446 4.179000 20.065622 -15.065702 -24.237568 -3.252896 -18.464791 3.916492 8.985671 0.000000 0.000000 0.000000 7.125000 0.000000 0.000000 7.354689 39.342846 1.031805
